HIERARCHY
ROOT Hips
{
	OFFSET	0.00	0.00	0.00
	CHANNELS 6 Xposition Yposition Zposition Zrotation Xrotation Yrotation
	JOINT LeftUpLeg
	{
		OFFSET	 0.126116	-0.014019	-0.065224
		CHANNELS 3 Zrotation Xrotation Yrotation
		JOINT LeftLeg
		{
			OFFSET	 0.000000	 0.000000	 0.569914
			CHANNELS 3 Zrotation Xrotation Yrotation
			JOINT LeftFoot
			{
				OFFSET	 0.000000	 0.000000	 0.544423
				CHANNELS 3 Zrotation Xrotation Yrotation
				JOINT LeftToeBase
				{
					OFFSET	 0.000000	 0.000000	 0.207117
					CHANNELS 3 Zrotation Xrotation Yrotation
					End Site
					{
						OFFSET	 0.000000	 0.000000	 0.207117
					}
				}
			}
		}
	}
	JOINT RightUpLeg
	{
		OFFSET	-0.124023	-0.008373	-0.065224
		CHANNELS 3 Zrotation Xrotation Yrotation
		JOINT RightLeg
		{
			OFFSET	 0.000000	 0.000000	 0.570047
			CHANNELS 3 Zrotation Xrotation Yrotation
			JOINT RightFoot
			{
				OFFSET	 0.000000	 0.000000	 0.544354
				CHANNELS 3 Zrotation Xrotation Yrotation
				JOINT RightToeBase
				{
					OFFSET	 0.000000	 0.000000	 0.207540
					CHANNELS 3 Zrotation Xrotation Yrotation
					End Site
					{
						OFFSET	 0.000000	 0.000000	 0.207540
					}
				}
			}
		}
	}
	JOINT Spine
	{
		OFFSET	 0.000184	-0.007763	 0.117403
		CHANNELS 3 Zrotation Xrotation Yrotation
		JOINT Spine1
		{
			OFFSET	 0.000000	 0.000000	 0.137269
			CHANNELS 3 Zrotation Xrotation Yrotation
			JOINT Spine2
			{
				OFFSET	 0.000000	 0.000000	 0.156879
				CHANNELS 3 Zrotation Xrotation Yrotation
				JOINT LeftShoulder
				{
					OFFSET	 0.080501	-0.002496	 0.160144
					CHANNELS 3 Zrotation Xrotation Yrotation
					JOINT LeftArm
					{
						OFFSET	 0.000000	 0.000000	 0.164363
						CHANNELS 3 Zrotation Xrotation Yrotation
						JOINT LeftForeArm
						{
							OFFSET	 0.000000	 0.000000	 0.364576
							CHANNELS 3 Zrotation Xrotation Yrotation
							JOINT LeftHand
							{
								OFFSET	 0.000000	 0.000000	 0.360812
								CHANNELS 3 Zrotation Xrotation Yrotation
								JOINT LeftHandIndex1
								{
									OFFSET	 0.000000	 0.000000	 0.086006
									CHANNELS 3 Zrotation Xrotation Yrotation
									JOINT LeftHandIndex2
									{
										OFFSET	 0.000000	 0.000000	 0.047236
										CHANNELS 3 Zrotation Xrotation Yrotation
										JOINT LeftHandIndex3
										{
											OFFSET	-0.004284	-0.000551	 0.038166
											CHANNELS 3 Zrotation Xrotation Yrotation
											End Site
											{
												OFFSET	-0.004284	-0.000551	 0.038166
											}
										}
									}
								}
							}
						}
					}
				}
				JOINT Neck
				{
					OFFSET	 0.000000	 0.000000	 0.176489
					CHANNELS 3 Zrotation Xrotation Yrotation
					JOINT Head
					{
						OFFSET	 0.000000	-0.001747	 0.077940
						CHANNELS 3 Zrotation Xrotation Yrotation
						End Site
						{
							OFFSET	 0.000000	-0.001747	 0.077940
						}
					}
				}
				JOINT RightShoulder
				{
					OFFSET	-0.080363	 0.000306	 0.159706
					CHANNELS 3 Zrotation Xrotation Yrotation
					JOINT RightArm
					{
						OFFSET	 0.000000	 0.000000	 0.164196
						CHANNELS 3 Zrotation Xrotation Yrotation
						JOINT RightForeArm
						{
							OFFSET	 0.000000	 0.000000	 0.365611
							CHANNELS 3 Zrotation Xrotation Yrotation
							JOINT RightHand
							{
								OFFSET	 0.000000	 0.000000	 0.360648
								CHANNELS 3 Zrotation Xrotation Yrotation
								JOINT RightHandIndex1
								{
									OFFSET	 0.000000	 0.000000	 0.069977
									CHANNELS 3 Zrotation Xrotation Yrotation
									JOINT RightHandIndex2
									{
										OFFSET	 0.000000	 0.000000	 0.052305
										CHANNELS 3 Zrotation Xrotation Yrotation
										JOINT RightHandIndex3
										{
											OFFSET	 0.009002	-0.000782	 0.042196
											CHANNELS 3 Zrotation Xrotation Yrotation
											End Site
											{
												OFFSET	 0.009002	-0.000782	 0.042196
											}
										}
									}
								}
							}
						}
					}
				}
			}
		}
	}
}
MOTION
Frames:    5
Frame Time: 0.03333334
-0.000059	 0.017080	 1.308474	 0.001965	 0.015196	 0.062104	 10.832900	-2.049013	 176.862200	 1.482097	-11.223860	-0.654094	-6.738088	 63.186610	 0.918953	-2.385833	 28.452760	 0.000004	-10.961250	-2.380032	-177.017700	-1.465746	-11.467030	 0.656355	 6.489120	 63.204630	-0.802600	 2.384658	 28.388730	 0.000004	 28.051100	 1.759033	 0.141175	-0.624593	 6.928922	-0.196698	 1.921981	-8.834735	 0.512004	-91.776180	 78.527470	 180.000000	 46.061600	 33.699920	-53.156950	-26.255040	 4.309203	-12.407050	-32.090090	-9.708066	-4.755194	-2.635965	 4.993658	 6.788941	-5.165319	 0.784187	 3.516649	-5.225038	 0.466231	 0.424329	-0.000002	-3.783157	-0.089647	 1.824554	 3.048389	-0.048566	 89.782130	 78.203890	 180.000000	-2.701718	 12.096120	 111.964300	-16.213320	 3.994398	 12.530410	 4.999265	-10.653890	-5.738736	 6.112037	 4.509576	-0.364401	 4.968462	 1.518543	-9.347576	 5.168945	 0.703820	 2.021906
-0.000119	 0.016909	 1.311172	 0.001809	 0.016117	 0.049306	 11.449610	-2.062412	 176.834400	 1.482684	-11.173510	-0.651082	-6.683490	 62.703260	 0.882420	-2.385833	 28.452760	 0.000004	-11.574630	-2.434404	-176.972500	-1.465413	-11.495310	 0.658019	 6.443149	 62.764300	-0.774338	 2.384658	 28.388730	 0.000004	 31.654330	 1.737687	 0.125180	-0.450027	 7.000027	-0.134432	 1.398743	-8.933673	 0.371537	-91.776180	 78.527430	 180.000000	 46.172760	 33.669310	-53.202440	-22.482410	 2.770864	-10.022160	-28.365160	-19.310490	-3.883174	-2.635965	 4.993658	 6.788941	-5.165319	 0.784187	 3.516649	-5.225038	 0.466231	 0.424329	-0.000002	-3.783157	-0.089647	 1.332874	 3.021412	-0.035167	 89.782150	 78.203900	 180.000000	-2.790915	 12.291100	 111.873300	-20.156610	 2.445652	 10.123290	-0.532584	-19.553530	-7.199955	 6.112037	 4.509576	-0.364401	 4.968462	 1.518543	-9.347576	 5.168945	 0.703820	 2.021906
-0.000117	 0.016713	 1.313226	 0.001576	 0.016477	 0.037233	 11.982800	-2.075499	 176.811900	 1.483133	-11.134330	-0.648742	-6.636838	 62.287750	 0.851776	-2.385833	 28.452760	 0.000004	-12.104550	-2.483814	-176.933000	-1.465074	-11.524270	 0.659721	 6.403760	 62.386100	-0.750600	 2.384658	 28.388730	 0.000004	 33.186910	 1.724795	 0.111906	-0.296101	 7.044031	-0.079719	 0.937453	-8.994342	 0.246309	-91.776150	 78.527470	 180.000000	 46.335060	 33.694120	-53.378420	-18.690730	 1.591969	-7.543094	-24.576520	-27.565540	-1.843877	-2.635965	 4.993658	 6.788941	-5.165319	 0.784187	 3.516649	-5.225038	 0.466231	 0.424329	-0.000002	-3.783157	-0.089647	 0.900296	 3.004901	-0.023628	 89.782150	 78.203850	 180.000000	-2.745266	 12.562680	 111.754700	-24.116390	 1.261274	 7.622101	-6.014459	-27.029210	-9.982210	 6.112037	 4.509576	-0.364401	 4.968462	 1.518543	-9.347576	 5.168945	 0.703820	 2.021906
-0.000128	 0.016106	 1.314137	 0.000706	 0.017004	 0.024450	 12.101520	-2.053701	 176.813400	 1.483634	-11.090780	-0.646139	-6.622396	 62.140560	 0.842786	-2.385833	 28.452760	 0.000004	-12.218950	-2.479333	-176.910000	-1.464784	-11.549310	 0.661193	 6.410206	 62.294880	-0.764280	 2.384658	 28.388730	 0.000004	 32.807140	 1.716756	 0.097133	-0.124663	 7.071962	-0.021739	 0.425407	-9.033069	 0.107500	-91.776140	 78.527430	 180.000000	 46.621030	 33.822200	-53.793070	-14.031240	 0.636108	-4.427097	-19.604610	-35.159300	 1.801962	-2.635965	 4.993658	 6.788941	-5.165319	 0.784187	 3.516649	-5.225038	 0.466231	 0.424329	-0.000002	-3.783157	-0.089647	 0.420611	 2.994379	-0.011007	 89.782150	 78.203890	 180.000000	-4.680018	 12.614330	 111.407700	-28.885350	 0.298959	 4.479191	-13.483800	-33.299900	-14.340790	 6.112037	 4.509576	-0.364401	 4.968462	 1.518543	-9.347576	 5.168945	 0.703820	 2.021906
-0.000186	 0.015574	 1.315107	-0.000202	 0.017316	 0.013068	 12.105910	-2.027836	 176.820800	 1.484050	-11.054720	-0.643986	-6.617700	 62.079710	 0.840212	-2.385833	 28.452760	 0.000004	-12.219360	-2.463381	-176.894000	-1.464540	-11.569820	 0.662399	 6.426006	 62.284610	-0.784123	 2.384658	 28.388730	 0.000004	 30.621050	 1.715145	 0.089782	 0.006762	 7.079047	 0.015223	-0.026296	-9.042927	-0.006952	-91.776200	 78.527490	-180.000000	 46.909060	 33.976840	-54.248370	-9.717456	 0.220549	-1.502667	-14.877280	-39.368200	 5.602556	-2.635965	 4.993658	 6.788941	-5.165319	 0.784187	 3.516649	-5.225038	 0.466231	 0.424329	-0.000002	-3.783157	-0.089647	 0.008285	 2.991323	-0.000230	 89.782180	 78.203890	 179.999900	-9.011128	 12.780520	 110.792100	-32.756200	-0.115940	 1.529468	-20.062370	-36.445150	-18.365850	 6.112037	 4.509576	-0.364401	 4.968462	 1.518543	-9.347576	 5.168945	 0.703820	 2.021906
